<?xml version="1.0" encoding="UTF-8"?><svg id="Ebene_2" xmlns="http://www.w3.org/2000/svg" viewBox="0 0 431.31 130.8"><defs><style>.cls-1{fill:#fabe6c;stroke-width:0px;}</style></defs><g id="Ebene_1-2"><path class="cls-1" d="m15.08,129.21l.78-.88.8-.98.75-1,.72-1.02.68-1.04.64-1.06.61-1.08.58-1.1.54-1.11.51-1.12.48-1.14.44-1.15.41-1.16.38-1.18.35-1.18.32-1.19.3-1.21.27-1.21.24-1.21.22-1.22.19-1.23.17-1.23.15-1.24.13-1.25.09-1.22.09-1.24.05-1.25.05-1.24.02-1.24v-1.23s0-1.23,0-1.23l-.02-1.24-.05-1.23-.05-1.23-.08-1.22-.08-1.21-.11-1.2-.11-1.2-.14-1.19-.14-1.19-.16-1.17-.16-1.16-.18-1.15-.18-1.15-.2-1.12-.2-1.12-.22-1.1-.21-1.05-.11-.54-.09-.54-.09-.59-.1-.62-.1-.66-.1-.7-.23-1.43-.28-1.51-.35-1.48-.24-.85-.27-.8-.31-.8-.36-.8-.44-.82-.51-.79-.6-.78-.71-.76-.81-.68-.91-.6-1.02-.51-1.06-.37-1.08-.24-1.09-.1-1.02.02-.97.12-.93.2-.86.26-.82.3-.78.35-.73.38-.69.4-.66.42-.62.44-.54.43-.52.48-.46.5-.42.52-.38.54-.34.55-.3.55-.27.57-.24.56-.21.57-.19.58-.18.64-.25,1.08-.2,1.16-.14,1.15-.09,1.15-.05,1.16v1.14s.01,1.13.01,1.13l.05,1.12.08,1.09.1,1.07.12,1.04.13.99.14.95.15.9.15.84.15.78.15.71.15.68.31,1.2.38,1.22.43,1.17.48,1.13.53,1.09.58,1.04.62.99.67.95.71.9.75.85.79.81.82.75.85.7.89.65.91.59.93.55.96.5.97.45.99.4,1.01.36,1.02.31,1.03.26,1.05.22,1.05.18,1.05.14,1.06.1,1.06.06,1.06.02,1.07-.02,1.06-.05,1.06-.09,1.07-.12,1.06-.16,1.05-.19,1.05-.23,1.04-.26,1.03-.29,1.03-.32,1.02-.35,1.01-.38,1-.42.98-.44.97-.47.95-.5.93-.53.91-.56.9-.59.87-.61.81-.61.79-.63.77-.65.75-.67.74-.69.72-.71.7-.73.68-.75.66-.76.64-.78.63-.79.63-.84,1.13-1.62,1.09-1.72,1-1.76.93-1.8.85-1.85.76-1.88.69-1.91.6-1.94.51-1.96.43-1.98.34-2,.26-2.01.17-2.02.08-2.03-.02-2.02-.12-2.02-.22-2.02-.31-1.92-.08-.43-.09-.42-.1-.47-.12-.52-.14-.56-.16-.6-.18-.63-.2-.66-.22-.68-.24-.7-.27-.72-.31-.77-.64-1.4-.81-1.44-.91-1.27-.66-.75-.67-.64-.75-.57-.86-.51-.99-.41-.91-.23-.65-.09-.53-.04h-.52s-.52.04-.52.04l-.53.08-.63.15-.83.3-.9.48-.76.57-.65.62-.55.67-.44.68-.37.68-.31.68-.25.67-.2.65-.17.65-.14.62-.11.61-.09.59-.07.56-.05.53-.04.49-.03.45-.02.4v.35s-.03.35-.03.35v1.12s.04,1.18.04,1.18l.12,1.15.18,1.13.25,1.12.32,1.08.38,1.05.46,1.02.53.97.6.92.68.88.75.81.81.75.9.69.95.6,1.01.51,1.08.43,1.11.33,1.15.23,1.2.14,1.22.04,1.24-.06,1.28-.16,1.25-.24.84-.21.79-.23.77-.26.75-.28.74-.3.74-.32,1.35-.63,1.33-.68,1.28-.69,1.61-.89,1.62-.92,1.62-.95,1.63-.98,1.63-1.01,1.63-1.03,1.61-1.06,1.62-1.06,1.61-1.1,1.61-1.1,1.6-1.13,1.6-1.12,1.58-1.14,1.58-1.14,1.56-1.16,1.56-1.15,1.53-1.16,1.53-1.16,1.5-1.15,1.5-1.15,1.46-1.14,1.46-1.14,1.41-1.12,1.42-1.12.86-.69.86-.7.85-.71.85-.71.84-.72.84-.71.84-.72.83-.72.83-.72.83-.72.83-.72.82-.71.83-.71.83-.71.83-.71.81-.69.82-.67.85-.69.85-.69.81-.66.83-.62.87-.66.87-.66.83-.63.85-.6.85-.6.87-.57.86-.57.88-.54.88-.54.9-.5.89-.5.91-.46.9-.46.93-.42.94-.42.93-.38.95-.36.97-.34.98-.31.99-.29,1-.26,1.02-.23,1.03-.2,1.05-.18,1.06-.15,1.07-.12,1.08-.08,1.08-.04,1.04.02,1.04.07,1.03.12,1.01.17,1.01.22,1,.27.99.32.98.36.98.41.97.45.96.49.95.53.94.57.94.61.93.64.92.68.91.71.9.74.89.77.88.8.87.82.86.84.84.86.84.9.83.89.8.92.81.93.78.95.78.95.76.96.76.97.73.97.73.97.71.97.71.98.68.97.68.97.66.95.66.95.63.93.63.93.61.9.61.9.58.86.59.87,1.1,1.62.82,1.23.79,1.24.77,1.27.76,1.29.76,1.31.76,1.32.78,1.31.79,1.33.83,1.3.84,1.32.92,1.27.91,1.25.74.93.73.88.75.85.76.83.77.8.78.77.79.75.81.72.82.69.83.67.84.64.85.62.86.59.88.57.88.54.89.51.91.49.91.46.92.43.93.41.94.38.95.36.96.33.97.3.97.28.98.25.99.23.99.2,1,.18,1.01.15,1.01.13,1.02.1,1.03.08,1.03.05,1.04.03h1.04s1.05-.02,1.05-.02l1.05-.04,1.06-.07,1.06-.09,1.07-.12,1.07-.14,1.07-.16,1.08-.19,1.08-.21,1.08-.23,1.09-.26,1.09-.28,1.53-.42,1.53-.43,1.53-.46,1.52-.46,1.52-.49,1.51-.49,1.51-.52,1.51-.52,1.5-.55,1.5-.55,1.49-.57,1.49-.57,1.49-.59,1.49-.59,1.48-.62,1.48-.62,1.47-.64,1.47-.63,1.47-.65,1.47-.65,1.46-.67,1.46-.67,1.46-.68,1.45-.68,1.45-.69,1.45-.69,1.45-.7,1.44-.7,1.44-.71,1.44-.71,1.43-.71,1.43-.71,1.43-.71,1.43-.71,1.43-.71,1.42-.71,1.42-.71,1.42-.71,1.42-.71,1.42-.71,1.41-.7,1.41-.7,1.41-.7,1.41-.7,1.4-.68,1.41-.68,1.41-.68,1.4-.68,1.72-.81,1.73-.8,1.74-.78,1.75-.78,1.75-.77,1.75-.78,1.75-.79,1.75-.79,1.74-.82,1.74-.82,1.71-.88,1.71-.88,1.15-.63,1.15-.62,1.14-.64,1.14-.64,1.14-.66,1.14-.66,1.14-.67,1.14-.67,1.14-.69,1.14-.69,1.14-.7,1.14-.7,1.14-.71,1.13-.7,1.13-.7,1.13-.71,1.14-.71,1.14-.71,1.14-.71,1.14-.71,1.14-.7,1.14-.71,1.14-.71,1.14-.7,1.15-.69,1.15-.69,1.15-.69,1.15-.69,1.16-.67,1.16-.67,1.16-.67,1.15-.66,1.17-.63,1.17-.63,1.17-.63,1.17-.63,1.18-.6,1.18-.6,1.19-.58,1.19-.58,1.2-.55,1.2-.55,1.2-.52,1.2-.52,1.21-.49,1.21-.49,1.22-.46,1.22-.46.78-.26.79-.23.8-.2.81-.18.82-.15.83-.13.83-.1.84-.08.85-.05.86-.03h.86s.87,0,.87,0l1.76.08,1.77.15,1.79.22,1.8.27,1.8.32,1.81.37,1.81.4,1.8.43,1.79.45,1.78.47,1.77.48,1.75.48,1.73.47,1.7.46,1.67.44,1.64.41,1.6.37,1.56.33-1.55-.35-1.59-.4-1.63-.43-1.66-.46-1.69-.48-1.72-.5-1.74-.5-1.76-.5-1.78-.49-1.79-.48-1.8-.46-1.8-.43-1.81-.39-1.81-.35-1.8-.3-1.8-.24-1.79-.18-1.77-.1-.88-.02h-.87s-.87.02-.87.02l-.86.04-.86.07-.85.09-.85.12-.84.14-.83.17-.82.2-.81.23-.8.26-1.24.44-1.24.44-1.23.48-1.23.48-1.22.51-1.22.51-1.21.54-1.21.54-1.2.56-1.2.56-1.19.59-1.19.59-1.19.62-1.18.62-1.18.62-1.19.62-1.17.65-1.17.65-1.17.65-1.17.65-1.16.68-1.16.68-1.16.68-1.16.68-1.15.69-1.15.69-1.15.69-1.15.69-1.15.7-1.15.69-1.15.69-1.15.69-1.14.69-1.14.69-1.14.69-1.14.69-1.14.68-1.14.68-1.14.67-1.14.67-1.14.66-1.14.66-1.14.64-1.14.64-1.14.62-1.14.62-1.14.6-1.14.6-1.71.85-1.7.84-1.73.79-1.73.79-1.75.76-1.75.76-1.76.75-1.76.75-1.76.75-1.76.76-1.76.78-1.75.8-1.42.67-1.41.66-1.41.66-1.42.67-1.43.69-1.42.68-1.42.68-1.42.68-1.43.69-1.43.69-1.43.69-1.43.69-1.43.69-1.43.69-1.44.69-1.44.69-1.44.69-1.44.69-1.44.68-1.44.68-1.45.68-1.45.68-1.45.67-1.45.67-1.46.66-1.46.65-1.46.64-1.46.64-1.47.62-1.46.62-1.47.61-1.47.61-1.47.59-1.47.59-1.48.57-1.48.57-1.48.54-1.48.54-1.49.52-1.49.52-1.49.49-1.49.49-1.5.46-1.5.46-1.5.43-1.5.43-1.51.39-1.51.39-1.04.25-1.03.23-1.03.2-1.03.18-1.02.16-1.01.14-1.01.12-1,.09-1,.07-.99.05-.98.03h-.98s-.97-.01-.97-.01l-.96-.04-.96-.06-.95-.09-.94-.11-.93-.13-.93-.15-.92-.18-.91-.2-.9-.22-.89-.25-.89-.27-.88-.29-.87-.31-.86-.34-.85-.36-.84-.38-.84-.41-.83-.43-.82-.45-.81-.48-.8-.5-.79-.53-.78-.55-.77-.57-.76-.6-.75-.63-.74-.65-.73-.67-.72-.7-.71-.72-.7-.75-.69-.78-.68-.8-.67-.82-.64-.83-.85-1.21-.83-1.19-.76-1.24-.78-1.26-.74-1.29-.75-1.31-.74-1.32-.74-1.33-.76-1.33-.78-1.33-.81-1.33-.84-1.3-1.09-1.65-.57-.87-.57-.87-.6-.91-.6-.92-.62-.95-.62-.95-.65-.98-.65-.98-.68-1-.68-1-.71-1.01-.71-1.01-.74-1.01-.74-1.02-.77-1.01-.77-1.01-.8-1-.8-1.01-.83-.99-.83-.99-.86-.96-.86-.95-.89-.94-.9-.92-.92-.9-.94-.88-.96-.85-.97-.83-.99-.8-1.01-.77-1.03-.74-1.04-.7-1.07-.67-1.08-.63-1.1-.59-1.13-.55-1.14-.5-1.16-.45-1.19-.4-1.2-.34-1.22-.29-1.25-.23-1.26-.17-1.28-.11-1.3-.04-1.3.03-1.25.08-1.23.11-1.21.15-1.19.18-1.18.21-1.16.25-1.14.27-1.13.31-1.11.33-1.09.36-1.08.39-1.08.42-1.03.44-1.04.45-1.02.49-1.02.49-.99.54-.99.53-.97.57-.97.57-.95.6-.95.6-.93.63-.93.63-.92.67-.88.64-.88.64-.92.67-.9.71-.86.68-.86.68-.88.7-.87.72-.85.7-.85.7-.85.71-.85.71-.84.71-.84.71-.84.7-.84.7-.83.7-.84.69-.83.68-.84.67-.83.67-.84.65-.84.66-1.42,1.08-1.42,1.08-1.46,1.1-1.46,1.1-1.5,1.11-1.5,1.11-1.53,1.11-1.53,1.11-1.55,1.11-1.55,1.1-1.57,1.09-1.57,1.09-1.58,1.07-1.58,1.07-1.59,1.04-1.59,1.04-1.59,1-1.6,1-1.58.96-1.58.94-1.58.91-1.57.88-1.56.85-1.56.82-1.2.61-1.18.57-1.2.53-.54.22-.56.21-.56.19-.56.17-.55.15-.51.12-.89.15-.78.08-.73.02-.67-.03-.6-.08-.56-.13-.52-.17-.46-.2-.44-.24-.41-.27-.37-.3-.35-.35-.33-.38-.3-.41-.29-.47-.26-.51-.23-.54-.2-.6-.17-.64-.13-.67-.1-.71-.06-.75-.02-.77.03-.88v-.19s.03-.29.03-.29l.02-.32.03-.34.03-.36.04-.38.05-.38.06-.38.08-.37.08-.36.09-.33.1-.3.1-.27.1-.21.09-.16.07-.11.03-.03h0s-.05.04-.05.04l-.11.06h.04s-.17.05-.17.05h-.04s-.01.01-.01.01h0s.02,0,.02,0l-.08-.02h.07s-.04,0-.04,0l.04.03.1.08.14.14.11.12.52.72.45.82.46,1.03.19.47.2.53.18.54.17.54.15.53.14.51.13.49.11.46.1.42.08.38.06.32.03.19.25,1.69.16,1.63.07,1.65v1.66s-.09,1.66-.09,1.66l-.17,1.67-.24,1.67-.32,1.65-.4,1.65-.47,1.63-.54,1.6-.61,1.58-.67,1.55-.73,1.51-.8,1.48-.86,1.43-.91,1.38-1,1.37-.48.61-.52.63-.53.62-.55.6-.56.58-.57.57-.58.55-.59.53-.6.52-.61.5-.62.48-.63.46-.67.46-.67.43-.7.41-.71.39-.72.37-.74.35-.75.33-.76.3-.78.28-.78.26-.78.23-.79.21-.8.19-.79.16-.8.13-.8.11-.79.08-.79.06-.78.03h-.77s-.76-.02-.76-.02l-.75-.05-.73-.08-.73-.1-.71-.13-.69-.15-.68-.18-.66-.21-.63-.23-.62-.26-.6-.28-.57-.31-.56-.34-.54-.36-.51-.38-.49-.41-.48-.44-.45-.46-.43-.5-.41-.53-.38-.56-.37-.6-.35-.64-.32-.67-.3-.72-.27-.76-.24-.8-.22-.91-.1-.45-.12-.58-.12-.65-.12-.71-.12-.76-.11-.81-.1-.84-.09-.87-.07-.89-.06-.9-.04-.89v-.89s0-.87,0-.87l.04-.83.07-.8.1-.75.12-.67.17-.68.06-.21.08-.24.09-.22.09-.2.08-.16.08-.14.07-.12.06-.08.06-.07.04-.05.02-.02.03-.02.29-.2.31-.19.32-.18.31-.16.29-.13.28-.1.24-.07.18-.04.15-.02h.09s0,0,0,0h0s.04.01.04.01h-.02s0,0,0,0l.03.03.04.05.09.12.11.18.12.23.13.3.14.36.13.41.11.4.26,1.13.21,1.18.19,1.28.09.65.09.67.1.68.11.69.12.7.12.65.2,1.06.19,1.01.18,1.03.18,1.03.16,1.06.16,1.06.14,1.08.14,1.07.12,1.09.12,1.08.09,1.1.09,1.1.07,1.11.07,1.1.04,1.11.04,1.1v1.11s.02,1.11.02,1.11l-.02,1.11-.02,1.1-.05,1.1-.05,1.09-.09,1.08-.09,1.11-.11,1.06-.13,1.06-.15,1.06-.17,1.05-.19,1.03-.21,1.02-.23,1.01-.25.99-.27.98-.29.97-.31.94-.34.93-.36.92-.38.89-.4.88-.42.86-.44.83-.47.82-.49.8-.51.77-.54.75-.56.73-.58.7-.67.75c-1.72,1.95-1.54,4.92.4,6.64,1.95,1.72,4.92,1.54,6.64-.4Z"/></g></svg>