<?xml version="1.0" encoding="UTF-8"?><svg id="Ebene_2" xmlns="http://www.w3.org/2000/svg" viewBox="0 0 127.36 32.26"><defs><style>.cls-1{fill:#fef8f0;stroke-width:0px;}</style></defs><g id="Ebene_1-2"><path class="cls-1" d="m.07,8.7l.02.12.03.17.04.21.05.24.05.28.06.32.07.35.08.38.08.41.09.44.09.47.1.49.22,1.04.24,1.12.25,1.17.27,1.21.28,1.24.3,1.26.3,1.22.31,1.25.32,1.17.33,1.19.33,1.05.32,1,.2.56.18.48.19.46.2.45.22.46.24.46.29.48.4.55.56.6.91.68,1.57.58,1.86-.04.81-.24.68-.3.61-.35.55-.39.5-.43.52-.54.59-.74.53-.85.4-.78.32-.72.26-.66.22-.58.19-.49.15-.38.17-.36.38-.77.4-.88.38-.88.36-.89.34-.89.33-.89.63-1.75.62-1.72.64-1.64.67-1.54.74-1.37.88-1.28.37-.45.44-.46.46-.42.46-.39.47-.34.57-.33.3-.15.3-.14.26-.11.21-.08.16-.05.12-.03.09-.02h.04s.03-.02.03-.02h.02s0-.02,0-.02h.03s.05,0,.05,0l.05.02.08.05.1.08.12.1.1.09.35.41.34.46.38.56.41.63.44.69.48.74.53.77.6.79.68.77.78.75.9.71.93.57.62.31.59.24.6.19.63.16.66.12.67.07.71.03h.71s.69-.06.69-.06l.67-.08.66-.11.68-.14,1.19-.3,1.19-.37,1.13-.39,1.09-.39,1.03-.38,1.04-.33.95-.31.97-.19,1.01-.2.97-.11,1.05-.09,1.06-.07,1.06-.06,1.07-.04,1.07-.03h1.09s1.09-.03,1.09-.03h1.09s1.1,0,1.1,0h1.1s1.1,0,1.1,0h1.28s1.28.01,1.28.01h1.28s1.28.01,1.28.01h1.28s1.28.03,1.28.03h1.28s1.28.03,1.28.03l1.28.02,1.28.02,1.28.02,1.28.02,1.28.02,1.28.02,1.28.02,1.28.02,1.28.02,1.28.03,1.28.03,1.28.02,1.28.02,1.28.02,1.28.02,1.28.02,1.28.02,1.28.02,1.28.02,1.28.02,1.28.02,1.28.02,1.28.02,1.28.02h1.28s1.28,0,1.28,0h1.28s1.28,0,1.28,0h1.28s1.28,0,1.28,0h1.28s1.28,0,1.28,0l1.29-.02,1.28-.02,1.28-.02,1.28-.02,1.28-.02,1.28-.02,1.28-.02,1.28-.02-1.28-.05-1.28-.05-1.28-.05-1.28-.05-1.28-.05-1.28-.05-1.28-.05-1.28-.05-1.27-.08-1.28-.08-1.28-.08-1.28-.08-1.28-.08-1.28-.08-1.28-.08-1.27-.08-1.27-.09-1.27-.09-1.27-.09-1.27-.09-1.27-.09-1.27-.09-1.27-.09-1.27-.09-1.27-.1-1.27-.1-1.27-.1-1.27-.1-1.27-.1-1.27-.1-1.27-.1-1.27-.1-1.27-.1-1.27-.1-1.27-.1-1.27-.1-1.28-.1-1.27-.1-1.27-.1-1.28-.1-1.28-.1-1.28-.1-1.28-.1-1.28-.1-1.29-.09-1.28-.09-1.28-.09-1.28-.09-1.1-.07-1.1-.07-1.1-.07-1.11-.07-1.11-.06-1.11-.06-1.12-.04-1.13-.03-1.13-.02h-1.14s-1.14.02-1.14.02l-1.22.05-1.21.15-1.25.16-1.24.3-1.15.28-1.15.32-1.09.31-1.05.28-.99.23-.99.18-.42.05-.44.04-.43.02h-.42s-.4-.03-.4-.03l-.4-.05-.3-.06-.26-.07-.24-.08-.22-.09-.19-.1-.12-.07-.44-.32-.33-.32-.34-.4-.34-.47-.34-.53-.34-.6-.35-.65-.36-.69-.39-.72-.42-.75-.48-.78-.51-.72-.36-.44-.35-.39-.39-.38-.43-.36-.48-.35-.51-.31-.56-.28-.61-.24-.63-.18-.65-.12-.68-.06h-.67s-.67.04-.67.04l-.69.1-.67.15-.67.19-.69.24-.74.31-1.04.51-1.03.63-.95.69-.87.76-.81.82-.79.92-1.26,1.67-1.15,1.84-1.03,1.84-.92,1.84-.84,1.8-.77,1.74-.36.82-.35.79-.35.75-.34.7-.33.64-.38.68-.33.63-.32.68-.27.61-.23.54-.2.46-.18.36-.14.25-.07.1-.09.09.15-.17.11-.09.13-.09.16-.09.2-.09.3-.09,1.63-.03,1.34.49.67.49.31.33.14.18.03.04-.03-.06-.06-.13-.08-.21-.09-.26-.1-.31-.09-.29-.26-.92-.25-.88-.25-1.05-.26-1.07-.25-1.16-.26-1.18-.25-1.18-.24-1.19-.23-1.17-.22-1.14-.2-1.08-.19-1.01-.09-.47-.08-.45-.08-.43-.07-.4-.06-.37-.06-.34-.05-.3-.04-.27-.04-.23-.03-.19-.02-.14-.02-.1c-.43-2.56-2.86-4.29-5.43-3.85C1.36,3.71-.37,6.14.07,8.7Z"/></g></svg>