<svg width="135" height="308" viewBox="0 0 135 308" fill="none" xmlns="http://www.w3.org/2000/svg">
<mask id="path-1-inside-1_22_749" fill="white">
<path d="M67.5 -2.95052e-06C104.779 -1.32099e-06 135 30.2208 135 67.5L135 240.5C135 277.779 104.779 308 67.5 308V308C30.2208 308 3.11667e-06 277.779 4.7462e-06 240.5L1.23083e-05 67.5C1.39378e-05 30.2208 30.2208 -4.58004e-06 67.5 -2.95052e-06V-2.95052e-06Z"/>
</mask>
<path d="M67.5 -2.95052e-06C124.661 -4.51911e-07 171 46.3385 171 103.5L171 240.5C171 278.332 140.331 309 102.5 309L67.5 307C84.897 307 99 277.227 99 240.5L99 67.5C99 30.2208 84.897 -2.19007e-06 67.5 -2.95052e-06ZM67.5 309C29.6685 309 -0.999997 278.332 -0.999995 240.5L-0.999988 68.5C-0.999986 30.6685 29.6685 -4.60419e-06 67.5 -2.95052e-06C30.7731 -4.5559e-06 1.00001 30.2208 1.00001 67.5L1 240.5C1 277.227 30.7731 307 67.5 307L67.5 309ZM1.52588e-05 -5.90104e-06L135 0L1.52588e-05 -5.90104e-06ZM171 240.5C171 278.332 140.331 309 102.5 309L67.5 309C29.6685 309 -0.999997 278.332 -0.999995 240.5L1 240.5C1 277.227 30.7731 307 67.5 307C84.897 307 99 277.227 99 240.5L171 240.5Z" fill="black" mask="url(#path-1-inside-1_22_749)"/>
</svg>
