<?xml version="1.0" encoding="UTF-8"?><svg id="Ebene_2" xmlns="http://www.w3.org/2000/svg" viewBox="0 0 444 92.78"><defs><style>.cls-1{fill:#fabe6c;stroke-width:0px;}</style></defs><g id="Ebene_1-2"><path class="cls-1" d="m2.82,50.97c4.46,5.15,12.35-1.5,8.27-6.96-.81-1.08-1.53-2.09-1.71-2.99-2.75-13.85,11.99-25.2,20.66-29.02,20.58-10.82,47.15-5.01,67.14,4.32,15.07,6.78,34.09,16.18,32.82,36.44-.45,23.99-28.34,20.66-38.5,4.98-5.44-7.62-1.49-17.94,6.15-22.37,6.68-3.98,15.01-3.46,22.46-2.61,16.09,2.6,36.58,9.72,47.26,20.38,18.54,18.5,28.3,33.28,49.54,27.67,28.63-7.57,36.88-26.5,37.08-37.75.03-1.7-.07-3.4-.34-5.06-.81-4.92-7.75-6.03-9.62-1.27,1.04,10.07,20.36,4.96,26.89,3.59,10.63-1.7,21.2-4.22,31.92-5.29,15.29-1.85,32.17,2.29,43.34,13.23,4.4,5.04,6.95,11.49,11.24,16.6,5.69,6.78,12.34,13.1,19.94,17.73,20.02,11.85,44.25,10.78,66.66,9.32-12.31.6-24.77,1.15-37.03-.43-21.19-2.06-41.84-13.62-51.86-32.33-8.71-16.28-25.5-26.11-43.47-26.6-13.34-.24-26.43,3.02-39.56,4.94-7.7.99-19.06,5.35-25.08-.06,5.63-3.45,7.96,13.29-5.4,26.47-6.34,6.25-15.12,12.04-23.84,13.72-30.74,5.92-33.38-17.17-54.29-33.8-19.17-15.24-66.35-31.17-79.7-1.54-5.9,14.56,6.96,29,20.23,33.47,20.48,7.76,36-8.11,33.6-28.57-1.85-19.18-21.28-28.3-36.93-35.09C82.75,3.89,63.05-2.14,42.78.72,24.14,3.35.84,15.85.01,41.31c-.12,3.78.87,7.42,2.81,9.66Z"/></g></svg>