<?xml version="1.0" encoding="UTF-8"?><svg id="Ebene_2" xmlns="http://www.w3.org/2000/svg" viewBox="0 0 149.62 51.84"><defs><style>.cls-1{fill:#303646;stroke-width:0px;}</style></defs><g id="Ebene_1-2"><path class="cls-1" d="m9.39,47.65l.15-1.52.16-1.56.13-1.57.13-1.56.12-1.57.12-1.55.11-1.56.1-1.55.1-1.56.1-1.55.1-1.55.1-1.53.11-1.53.11-1.55.11-1.55.1-1.49.14-1.48.15-1.53.15-1.53.14-1.44.2-1.41.21-1.51.21-1.51.21-1.49.04-.27.06-.37.06-.37.06-.36.06-.35.05-.28.16-.65.13-.43.17-.35-.1.15-.1.11-.18.15-.29.18-.41.17-.41.09h-.37s-.28-.04-.28-.04h.03s-.11-.04-.11-.04h.03s.08.05.08.05l.11.06.13.08.12.07-.06-.07-.05-.06.02.02.07.08.09.14.12.21.14.26.14.3.15.35.15.39.16.42.15.43.33,1.03.31,1.09.31,1.17.31,1.22.3,1.26.29,1.28.28,1.27.29,1.3.28,1.23.29,1.27.31,1.14.3,1.1.2.61.19.54.2.52.22.51.24.51.26.5.3.5.36.51.43.5.53.49.69.48.84.38.85.22.95.1.92-.06.88-.2.83-.32.71-.4.62-.46.56-.51.48-.52.43-.54.39-.57.35-.58.33-.59.31-.61.29-.62.27-.63.26-.65.26-.68.47-1.32.46-1.37.44-1.38.42-1.38.41-1.35.41-1.3.39-1.26.41-1.12.41-1.14.17-.42.19-.43.19-.39.18-.34.16-.28.15-.23.12-.17.08-.1.03-.04h-.04s-.14.06-.14.06l-.12.03-.19.02h-.15s-.13-.03-.13-.03l-.11-.03-.09-.04-.14-.08.12.06.11.09.19.19.24.27.26.34.28.39.3.42.33.45.31.4.12.15.08.11.09.15.1.18.1.2.09.21.22.56.22.61.25.67.29.71.37.76.47.77.63.76.84.71.85.46.8.25.67.04.57-.07.49-.14.43-.19.37-.2.33-.22.31-.23.29-.24.28-.25.27-.26.28-.29.51-.56.53-.61.53-.64.53-.66.54-.68.54-.68,1.09-1.35,1.07-1.25,1.07-1.09.44-.4.43-.34.38-.25.31-.17.19-.08.23-.03h-.22s-.12-.03-.12-.03l-.09-.04-.07-.04-.05-.03-.06-.06.12.11.13.15.17.24.49.74.68.89.86.73.56.34.41.2.42.19.43.18.45.17.47.16.92.29.98.27.99.24.99.21.98.19.94.16.9.13.84.1.76.08,1.81.14,1.81.11,1.81.08,1.8.06,1.8.03h1.8s1.79,0,1.79,0h1.79s1.79-.03,1.79-.03l1.79-.03,1.79-.03,1.78-.03,1.78-.02,1.78-.02,1.78-.02,1.76-.02,1.76.03,1.78.03,1.78.03,1.75.03,1.75.13,1.78.14,1.78.14,1.76.14,1.62.2,1.63.2,1.63.22,1.64.22,1.64.23,1.64.23,1.64.22,1.64.22,1.64.19,1.64.19,1.64.14,1.64.14,1.64.1,1.64.07,1.64.03h1.63s1.63-.06,1.63-.06l1.63-.11,1.63-.16,1.63-.21,1.62-.28,1.62-.34,1.62-.41,1.61-.49-1.63.42-1.63.34-1.63.27-1.62.21-1.62.15-1.62.09-1.62.04h-1.62s-1.62-.07-1.62-.07l-1.62-.1-1.62-.14-1.62-.17-1.62-.21-1.62-.21-1.62-.26-1.62-.26-1.62-.28-1.62-.28-1.62-.29-1.63-.29-1.63-.29-1.63-.29-1.63-.27-1.65-.27-1.79-.21-1.77-.21-1.77-.21-1.8-.21-1.81-.11-1.78-.11-1.78-.11-1.79-.11-1.8-.05-1.78-.05-1.78-.05-1.78-.06-1.79-.05-1.78-.05-1.78-.05-1.77-.05-1.77-.07-1.77-.07-1.76-.09-1.76-.11-1.76-.13-1.75-.16-1.75-.18-1.75-.21-.65-.1-.75-.13-.82-.16-.86-.18-.88-.21-.89-.23-.88-.25-.84-.27-.81-.29-.35-.14-.34-.15-.32-.15-.29-.14-.25-.14h-.04s-.3-.28-.3-.28l-.29-.45-.41-.69-.28-.43-.35-.46-.39-.41-.34-.28-.33-.22-.37-.19-.41-.15-.46-.1-.58-.03-.83.08-.89.26-.81.37-.75.44-.72.51-.72.59-1.29,1.2-1.28,1.35-1.22,1.36-.59.68-.56.64-.54.61-.51.56-.47.5-.44.44-.18.16-.17.15-.15.13-.13.1-.09.06-.06.03h0s.08-.04.08-.04l.15-.05.25-.03.37.02.52.17-.19-.1-.03-.05-.09-.15-.14-.26-.15-.38-.17-.49-.18-.58-.2-.66-.23-.68-.15-.4-.16-.39-.18-.39-.21-.4-.25-.41-.24-.35-.25-.36-.24-.38-.28-.44-.32-.48-.36-.52-.41-.53-.48-.54-.6-.54-.62-.43-.52-.27-.49-.19-.52-.14-.55-.08h-.58s-.63.07-.63.07l-.7.19-.7.32-.59.39-.51.43-.46.46-.4.48-.37.49-.34.52-.32.53-.3.55-.29.57-.3.64-.51,1.19-.52,1.22-.51,1.35-.5,1.3-.5,1.35-.49,1.32-.49,1.29-.49,1.23-.5,1.17-.24.51-.24.5-.24.47-.24.43-.23.38-.22.34-.21.29-.18.22-.16.17-.12.11-.06.04h0s.07-.06.07-.06l.16-.07.2-.05.22-.02h.23s.11.03.11.03l.43.19.29.2.15.13.06.06h0s-.05-.11-.05-.11l-.07-.16-.09-.22-.1-.28-.11-.32-.11-.36-.09-.34-.26-1.02-.25-.98-.24-1.13-.25-1.17-.23-1.25-.23-1.28-.24-1.3-.24-1.32-.24-1.32-.26-1.31-.28-1.28-.3-1.21-.18-.64-.18-.6-.19-.59-.2-.58-.23-.58-.24-.56-.27-.55-.32-.56-.35-.54-.41-.54-.5-.55-.53-.47-.46-.36-.42-.3-.43-.27-.44-.25-.47-.23-.59-.24-.88-.27-1.12-.16-1.14.04-1.12.24-1.06.45-.88.57-.72.64-.59.69-.54.81-.58,1.13-.46,1.24-.31,1.09-.14.59-.11.51-.09.47-.08.43-.07.38-.08.41-.25,1.52-.25,1.5-.25,1.5-.26,1.6-.19,1.63-.18,1.53-.18,1.53-.19,1.59-.15,1.6-.14,1.54-.14,1.54-.15,1.56-.13,1.57-.13,1.55-.12,1.55-.12,1.54-.13,1.54-.13,1.53-.14,1.52-.14,1.51-.15,1.5-.15,1.49-.17,1.48-.18,1.52c-.28,2.58,1.58,4.91,4.17,5.19,2.58.28,4.91-1.58,5.19-4.17Z"/></g></svg>