<?xml version="1.0" encoding="UTF-8"?><svg id="Ebene_2" xmlns="http://www.w3.org/2000/svg" viewBox="0 0 90.83 35.69"><defs><style>.cls-1{fill:#fef8f0;stroke-width:0px;}</style></defs><g id="Ebene_1-2"><path class="cls-1" d="m5.53,13.98l1.6-.3,1.6-.3,1.6-.3,1.6-.3,1.6-.3,1.6-.3,1.6-.3,1.57-.29,1.58-.28,1.6-.29,1.6-.29,1.57-.28,1.58-.26,1.58-.26,1.58-.24,1.57-.24,1.58-.22,1.57-.22,1.58-.19,1.57-.19,1.57-.16,1.57-.17,1.57-.14,1.58-.15,1.31-.1,1.32-.1,1.33-.08,1.33-.06,1.34-.04,1.34-.03h1.34s1.35,0,1.35,0l1.35-.02,1.35-.02,1.35-.02,1.36-.03,1.11-.02,1.11-.02,1.11-.02,1.08-.02h1.09s1.11,0,1.11,0h1.11s1.05,0,1.05,0l1.04.05,1.11.05,1.11.05,1.04.04,1.67.14,1.67.19,1.67.24,1.66.28,1.65.33,1.66.38.41.1.4.11.37.11.34.11.31.11.28.11.25.11.22.1.19.1.17.1.13.08.05.03.2.16.04.03v-.04s-.02-.1-.02-.1v-.14s.02-.08.02-.08h.02s-.02.06-.02.06l-.09.15-.16.21-.24.25-.32.28-.39.3-.46.31-.53.32-.59.32-.64.31-.7.31-1.17.48-1.19.46-1.21.44-1.22.43-1.24.42-1.25.41-1.27.41-1.27.41-1.28.41-1.29.41-1.28.43-1.29.43-1.28.45-1.28.45-1.27.49-1.27.5-1.24.55-1.24.55-1.23.6-1.21.64-1.19.68-1.17.72-1.15.77-1.1.81-.28.22-.28.23-.29.25-.29.27-.29.3-.28.32-.26.35-.23.4-.17.44-.1.49v.54s.15.52.15.52l.27.57.32.53.37.49.41.45.44.42.47.38.49.35.5.32.51.28.52.26.53.23.53.2.79.25.81.2.81.16.81.12.81.09.81.07,1.6.09,1.59.06,1.57.08,1.03.06,1.03.06,1.03.04,1.03.04,1.03.02,1.03.02,1.03.02,1.03.02h1.03s1.03.03,1.03.03l1.03.02,1.03.02,1.61.02,1.61.02h1.61s1.61.01,1.61.01h1.61s1.61.01,1.61.01l-1.61-.1-1.61-.1-1.61-.1-1.61-.1-1.61-.11-1.61-.11-1.03-.07-1.03-.07-1.03-.07-1.03-.07-1.03-.07-1.03-.07-1.03-.08-1.02-.08-1.02-.09-1.02-.09-1.02-.11-1.03-.11-1.58-.17-1.58-.15-1.56-.17-.76-.11-.75-.13-.74-.16-.72-.18-.7-.22-.69-.26-.43-.19-.43-.22-.43-.24-.42-.26-.4-.28-.37-.3-.35-.31-.31-.33-.27-.34-.24-.35-.19-.36-.14-.36v-.04s0-.02,0-.02l.03-.07.06-.12.1-.15.15-.18.18-.19.21-.19.23-.19.24-.19.25-.18.23-.15,1.09-.71,1.1-.65,1.13-.61,1.15-.57,1.17-.53,1.18-.49,1.22-.46,1.21-.45,1.24-.4,1.24-.4,1.26-.36,1.27-.36,1.28-.34,1.29-.34,1.29-.33,1.3-.33,1.3-.33,1.3-.33,1.3-.34,1.3-.35,1.3-.37,1.29-.39,1.29-.41,1.28-.44.85-.32.81-.34.77-.35.73-.37.69-.4.64-.42.6-.45.55-.49.5-.53.44-.6.37-.69.26-.76.13-.83-.05-.88-.23-.83-.37-.76-.5-.69-.52-.54-.37-.32-.34-.26-.35-.24-.37-.23-.39-.22-.4-.21-.42-.2-.44-.2-.46-.19-.48-.18-.51-.18-.55-.18-1.73-.52-1.77-.48-1.78-.43-1.79-.38-1.8-.33-1.82-.29-1.18-.14-1.11-.14-1.1-.14-1.17-.14-1.18-.09-1.11-.09-1.11-.09-1.14-.09-1.14-.07-1.11-.07-1.11-.07-1.12-.08-1.36-.09-1.37-.08-1.37-.07-1.38-.06-1.38-.02-1.38-.02-1.38-.03-1.39-.04-1.39-.02-1.4-.04h-1.4s-1.41-.03-1.41-.03l-1.67.02-1.68.03-1.68.08-1.67.09-1.67.13-1.66.13-1.66.16-1.66.16-1.65.2-1.65.2-1.64.22-1.65.22-1.64.24-1.61.24-1.61.24-1.64.24-1.64.27-1.61.26-1.61.26-1.61.26-1.61.27-1.61.27-1.61.27-1.61.27C1.33,5.16-.38,7.61.07,10.17s2.89,4.27,5.45,3.82Z"/></g></svg>