<?xml version="1.0" encoding="UTF-8"?><svg id="Ebene_2" xmlns="http://www.w3.org/2000/svg" viewBox="0 0 227.47 74.96"><defs><style>.cls-1{fill:#fef8f0;stroke-width:0px;}</style></defs><g id="Ebene_1-2"><path class="cls-1" d="m7.46,36.99l.98-.71.95-.67.96-.65.97-.63.97-.61.97-.59,1.01-.59,1-.58,1.01-.55,1.01-.56,1.02-.54,1.03-.54,1.04-.53,1.05-.53,1.06-.52,1.07-.53,1.08-.52,1.09-.53,1.09-.53,1.1-.53,1.11-.54,1.12-.54,1.12-.56,1.11-.55,1.15-.57,1.13-.56,1.11-.54,1.11-.54,1.1-.52,1.1-.52,1.1-.5,1.09-.5,1.09-.48,1.09-.48,1.09-.46,1.09-.47,1.1-.45,1.09-.45,1.1-.43,1.1-.43,1.12-.42,1.12-.42,1.14-.4,1.13-.41,1.16-.39,1.16-.39,1.19-.38,1.22-.39.29-.09.33-.11.35-.12.36-.12.38-.13.4-.14.84-.29.9-.31.96-.33,1-.33,1.04-.33,1.06-.33,1.08-.31,1.08-.29,1.07-.26,1.05-.23,1.01-.19.96-.14.9-.1.8-.04.78.02.23.02.26.03.23.04.19.04.14.04.11.04.08.03h.03s.02,0,.02,0h0s-.02-.05-.02-.05l-.02-.04.11.17.07.13.06.17.05.19.04.21v.27s0,.31,0,.31l-.03.33-.07.39-.09.42-.13.45-.16.49-.19.51-.23.53-.26.56-.29.57-.32.58-.33.57-.79,1.27-.86,1.26-.92,1.29-.96,1.31-1,1.31-1.02,1.3-1.02,1.29-1.01,1.27-.98,1.24-.95,1.21-.9,1.17-.82,1.11-.4.57-.37.55-.35.54-.33.53-.31.54-.28.54-.23.49-.2.51-.17.52-.15.53-.14.55-.13.62-.17,1.12-.1,1.23v1.26s.1,1.29.1,1.29l.25,1.32.4,1.19.35.76.39.65.47.61.56.58.67.52.69.4.61.27.58.2.57.15.57.11.58.08.57.04.57.02h.57s.57-.04.57-.04l.57-.05.57-.07.61-.1,1.1-.22,1.15-.28,1.15-.33,1.15-.37,1.15-.4,1.15-.43,1.11-.45,1.11-.45,1.08-.47,1.06-.47,1-.46.99-.45.93-.43.87-.41.8-.37.73-.34.64-.29.54-.23,1.34-.53,1.33-.53,1.35-.52,1.35-.52,1.36-.5,1.36-.5,1.37-.48,1.37-.48,1.38-.45,1.38-.45,1.39-.42,1.39-.42,1.4-.4,1.4-.39,1.4-.36,1.4-.36,1.41-.32,1.41-.32,1.41-.29,1.41-.29,1.41-.24,1.41-.24,1.41-.2,1.44-.2.69-.09.74-.1.76-.09.77-.08.77-.07.77-.05.75-.02h.73s.69.06.69.06l.65.09.59.12.55.18.07.03h.01s0,0,0,0h0s0,0,0,0l.02.07.02.12v.17s0,.23,0,.23l-.03.27-.05.3-.07.3-.22.74-.27.74-.3.74-.3.71-.28.66-.22.57-.17.47-.2.48-.23.53-.26.57-.28.61-.3.64-.32.67-.32.69-.33.71-.32.73-.32.75-.31.78-.54,1.52-.43,1.57-.25,1.51-.06.83v.79s.1.78.1.78l.17.77.28.76.37.7.39.55.44.49.47.42.5.37.54.32.55.27.56.23.58.2.59.16.59.14.6.11.62.09,1.17.13,1.17.07,1.11.03h1.04s.94,0,.94,0h.82s1.93-.02,1.93-.02l1.93-.09,1.92-.14,1.9-.17,1.89-.2,1.88-.21,1.88-.2,1.87-.2,1.87-.15,1.86-.15,1.87-.05,1.88-.05,1.41.02,1.46.06,1.49.11,1.49.16,1.48.23,1.47.32.7.18.7.21.68.24.67.26.65.29.63.32.61.35.58.38.56.42.53.45.5.48.48.53.51.62.48.62.45.62.43.61.41.6.4.6.77,1.18.77,1.14.81,1.1.88,1.05.99.99,1.13.9.64.43.68.4.73.38.79.35.85.33.92.3,1.52.42,1.54.34,1.55.27,1.56.2,1.57.14,1.57.08,1.58.03,1.59-.02,1.59-.07,1.59-.1,1.59-.13,1.59-.16,1.59-.19,1.59-.19,1.59-.21,1.59-.21,1.58-.21,1.58-.21,1.56-.2,1.56-.2,1.54-.16,1.54-.16,1.52-.1,1.52-.1-1.52.05-1.52.05-1.55.12-1.55.12-1.57.15-1.57.15-1.58.17-1.58.17-1.59.17-1.59.17-1.59.14-1.59.14-1.59.11-1.59.09-1.58.05-1.57.02-1.56-.02-1.55-.07-1.54-.12-1.53-.18-1.51-.24-1.5-.3-1.48-.37-1.47-.45-.85-.31-.78-.33-.72-.35-.67-.37-.61-.38-.55-.39-1.03-.86-.88-.92-.79-1-.74-1.06-.72-1.13-.74-1.19-.39-.62-.4-.63-.43-.64-.45-.66-.49-.67-.53-.68-.52-.62-.57-.58-.6-.53-.62-.49-.65-.46-.68-.42-.7-.38-.72-.35-.73-.31-.74-.28-.76-.25-.78-.23-1.54-.38-1.57-.29-1.57-.21-1.55-.16-1.52-.1-1.48-.07h-1.92s-1.93-.02-1.93-.02l-1.92.1-1.91.1-1.9.15-1.89.15-1.88.15-1.87.14-1.87.11-1.86.08-1.86.03-1.88-.04-.81-.02-.93-.02-.99-.03-1.03-.06-1.05-.09-1.05-.15-.48-.09-.48-.11-.46-.12-.44-.14-.41-.15-.38-.17-.35-.18-.3-.19-.27-.21-.23-.22-.19-.22-.15-.23-.17-.35-.12-.36-.08-.41-.04-.45v-.49s.06-.49.06-.49l.24-1.23.39-1.27.53-1.35.29-.66.31-.68.32-.68.33-.67.33-.66.33-.65.33-.64.31-.62.3-.6.28-.58.25-.57.2-.5.2-.47.28-.6.34-.73.36-.82.36-.9.3-.91.14-.52.11-.51.08-.52.04-.54v-.56s-.09-.57-.09-.57l-.15-.59-.26-.6-.37-.56-.47-.5-.57-.42-.64-.32-.88-.31-.92-.23-.93-.15-.93-.1-.93-.04h-.91s-.9.02-.9.02l-.87.05-.84.07-.8.07-.75.07-.72.07-1.46.16-1.48.16-1.48.21-1.48.21-1.48.25-1.48.25-1.47.29-1.48.29-1.47.32-1.47.32-1.46.36-1.46.36-1.45.39-1.45.39-1.44.42-1.44.42-1.43.44-1.43.44-1.42.46-1.42.46-1.4.48-1.4.48-1.39.5-1.38.5-.67.26-.73.3-.79.33-.83.35-.89.38-.93.39-.99.41-.97.41-1.04.41-1.02.4-1.05.38-1.06.38-1.03.34-1.02.31-1,.28-.97.24-.91.19-.9.14-.37.04-.38.03-.36.02h-.34s-.31,0-.31,0l-.29-.02-.26-.03-.22-.04-.19-.05-.16-.05-.12-.05-.05-.03-.03-.02.04.02h0s-.02-.06-.02-.06l-.03-.08v-.02s-.17-.53-.17-.53l-.08-.55-.02-.67.03-.73.09-.74.15-.77.07-.28.09-.3.09-.27.09-.23.08-.17.07-.12.16-.27.2-.32.25-.36.28-.39.32-.42.34-.43.8-.99.88-1.05.97-1.12,1.03-1.18,1.07-1.23,1.1-1.28,1.11-1.32,1.11-1.36,1.09-1.39,1.05-1.42,1-1.45.92-1.44.46-.77.42-.75.4-.75.38-.76.35-.77.32-.78.29-.79.25-.81.21-.81.16-.83.11-.86.05-.86v-.87s-.1-.9-.1-.9l-.17-.89-.26-.89-.36-.89-.43-.81-.46-.69-.52-.62-.56-.54-.59-.47-.63-.41-.64-.34-.64-.28-.66-.24-.65-.19-.65-.15-.66-.11-.73-.09-1.22-.08h-1.31s-1.3.09-1.3.09l-1.3.14-1.31.19-1.29.24-1.28.27-1.26.3-1.23.32-1.19.33-1.15.33-1.09.33-1.03.32-.95.3-.86.28-.39.13-.36.12-.33.11-.3.09-.26.08-.25.07-1.23.36-1.27.37-1.24.39-1.24.39-1.21.41-1.21.41-1.19.42-1.19.42-1.18.44-1.18.44-1.17.46-1.16.46-1.16.47-1.16.47-1.15.49-1.15.49-1.15.51-1.15.51-1.15.52-1.15.52-1.16.54-1.16.54-1.17.56-1.15.55-1.12.53-1.11.53-1.1.52-1.11.52-1.1.52-1.11.52-1.1.52-1.11.52-1.1.53-1.11.53-1.1.55-1.11.55-1.1.56-1.11.57-1.1.59-1.11.6-1.1.63-1.09.62-1.11.66-1.1.68-1.1.7-1.1.72-1.1.75-1.06.75c-2.11,1.52-2.59,4.46-1.07,6.57,1.52,2.11,4.46,2.59,6.57,1.07Z"/></g></svg>