<?xml version="1.0" encoding="UTF-8"?><svg id="Ebene_2" xmlns="http://www.w3.org/2000/svg" viewBox="0 0 63.31 36.8"><defs><style>.cls-1{fill:#303646;stroke-width:0px;}</style></defs><g id="Ebene_1-2"><path class="cls-1" d="m1.56,13.29l.72,1.07.71,1.05.73,1.05.74,1.06.78,1.03.88.99.8,1.04.84,1.02.91.98.89,1,.88,1,.88,1,.89.99.87,1,.89.98.89.98.92.96.91.96.93.93.93.93.96.9.95.89.99.85.99.85-.69-1.1-.69-1.09-.64-1.12-.63-1.12-.59-1.14-.59-1.14-.55-1.16-.54-1.16-.51-1.18-.51-1.18-.49-1.19-.47-1.2-.45-1.21-.45-1.22-.41-1.24-.39-1.25-.45-1.22-.49-1.21-.4-1.25-.5-1.21-.55-1.18-.56-1.19-.6-1.17-.59-1.15c-1.32-2.24-4.2-2.99-6.44-1.67C.99,8.16.24,11.05,1.56,13.29Z"/><path class="cls-1" d="m7.32,33.44l1.18-.83,1.16-.82,1.15-.8,1.15-.81,1.14-.8,1.14-.8,1.13-.78,1.12-.79,1.11-.78,1.11-.8,1.08-.81,1.08-.83,1.1-.77,1.13-.72,1.1-.75,1.08-.79,1.08-.78,1.09-.77,1.1-.75,1.09-.75,1.11-.72,1.11-.72,1.12-.71,1.12-.71,1.13-.69,1.13-.69,1.14-.67,1.14-.67,1.15-.66,1.16-.66,1.17-.65,1.17-.65,1.18-.63,1.18-.63,1.2-.62,1.2-.62,1.22-.61,1.22-.61,1.24-.6,1.24-.6,1.26-.59,1.26-.59,1.28-.58,1.28-.58,1.3-.57,1.3-.57,1.33-.56,1.33-.56-1.4.37-1.4.37-1.37.38-1.38.38-1.35.39-1.36.39-1.34.4-1.34.4-1.32.42-1.32.42-1.31.43-1.31.43-1.29.44-1.3.44-1.28.45-1.28.45-1.27.47-1.27.47-1.26.48-1.27.48-1.26.5-1.26.5-1.25.5-1.25.5-1.25.52-1.25.52-1.25.53-1.25.53-1.25.54-1.25.54-1.25.55-1.26.54-1.26.56-1.24.6-1.21.67-1.24.61-1.26.59-1.26.61-1.24.66-1.23.67-1.23.7-1.22.71-1.23.73-1.23.73-1.23.76-1.23.76-1.24.78-1.22.77c-2.16,1.45-2.74,4.37-1.3,6.53,1.44,2.16,4.37,2.74,6.53,1.3Z"/></g></svg>