<?xml version="1.0" encoding="UTF-8"?><svg id="Ebene_2" xmlns="http://www.w3.org/2000/svg" viewBox="0 0 54.96 50.22"><defs><style>.cls-1{fill:#fef8f0;stroke-width:0px;}</style></defs><g id="Ebene_1-2"><path class="cls-1" d="m12.45,29.46l-.41-.46-.32-.39-.3-.41-.29-.42-.26-.42-.24-.43-.23-.44-.2-.44-.19-.45-.17-.46-.15-.45-.13-.47-.11-.47-.09-.47-.07-.48-.05-.48-.03-.47-.02-.48v-.48s.02-.47.02-.47l.04-.48.06-.48.08-.47.1-.47.11-.47.13-.45.15-.46.17-.45.18-.44.2-.44.22-.43.23-.41.26-.41.27-.4.29-.39.31-.38.33-.37.34-.35.36-.35.38-.34.39-.32.42-.31.44-.3.45-.28.48-.27.5-.25.51-.23.55-.22.66-.24.67-.22.68-.2.69-.18.69-.16.7-.14.7-.12.7-.09.71-.07.71-.06.71-.03h.72s.72,0,.72,0l.71.02.72.04.72.06.71.08.71.1.71.12.7.14.7.16.7.18.69.2.68.24.68.25.66.27.66.29.65.32.63.34.62.36.61.38.59.39.59.41.58.42.56.43.55.45.54.47.53.48.52.5.5.52.48.53.47.55.45.57.43.58.41.61.4.62.37.64.35.66.35.72.32.71.29.7.26.69.22.67.19.67.17.66.14.64.11.64.09.63.06.61.03.61v.6s0,.58,0,.58l-.04.58-.06.57-.09.56-.11.55-.13.54-.15.53-.17.53-.19.52-.21.51-.24.5-.25.5-.27.48-.29.48-.31.47-.33.46-.35.45-.37.45-.38.43-.4.43-.42.42-.43.4-.43.37-.98.78-1.01.71-1.07.66-1.12.62-1.16.56-1.21.5-1.24.45-1.27.38-1.3.32-1.32.26-1.33.19-1.35.13-1.36.06h-1.35s-1.36-.09-1.36-.09l-1.35-.15-1.33-.22-1.32-.3-1.3-.37-1.27-.45-1.27-.54-.59-.28-.6-.31-.6-.34-.59-.36-.57-.38-.57-.4-.56-.42-.54-.44-.53-.46-.52-.48-.51-.5-.49-.53-.48-.55-.46-.57-.45-.6-.44-.62-.42-.65-.4-.66-.33-.62-.25-.61-.2-.63-.14-.64-.09-.64-.03-.66.02-.67.07-.68.12-.7.17-.71.22-.71.27-.72.31-.72.36-.73.4-.73.44-.73.48-.72.52-.72.55-.71.59-.7.62-.69.65-.68.67-.67.7-.66.72-.64.74-.62.75-.61.77-.59.78-.56.79-.54.8-.52.81-.49.81-.47.81-.44.81-.41.81-.38.8-.35.8-.31.79-.28.78-.25.76-.21.74-.17.73-.13.7-.09.68-.05h.66s.63.03.63.03l.59.08.62.13.59.19.56.24.54.28.52.33.5.37.48.4.46.44.44.47.42.49.4.52.39.54.73,1.12.67,1.15.62,1.15.59,1.13.55,1.07.53.98-.48-1-.5-1.09-.53-1.15-.57-1.19-.62-1.19-.69-1.16-.37-.57-.39-.55-.41-.53-.43-.51-.46-.48-.48-.45-.51-.42-.54-.38-.57-.33-.6-.29-.64-.24-.67-.18-.65-.12-.68-.07-.71-.02-.73.02-.75.06-.77.1-.79.14-.81.18-.82.22-.83.25-.84.29-.85.32-.86.35-.86.38-.86.42-.86.44-.86.47-.86.5-.85.52-.84.55-.83.57-.82.59-.8.62-.78.64-.76.65-.74.67-.72.69-.69.71-.66.72-.63.74-.6.75-.56.76-.52.78-.49.79-.44.8-.4.81-.35.82-.3.83-.24.84-.19.84-.13.85-.06.86v.86s.07.86.07.86l.15.86.22.85.3.85.38.82.42.79.43.75.45.72.47.7.5.68.51.65.53.63.55.61.57.58.58.56.6.54.61.51.63.49.64.47.66.44.67.42.68.4.71.39,1.39.68,1.45.6,1.48.51,1.5.42,1.53.34,1.54.25,1.55.17,1.56.09h1.56s1.56-.06,1.56-.06l1.55-.15,1.54-.22,1.52-.29,1.51-.37,1.48-.44,1.45-.51,1.42-.59,1.37-.66,1.33-.73,1.29-.8,1.2-.85.62-.48.58-.48.56-.5.55-.52.53-.54.51-.55.49-.57.48-.59.45-.6.43-.62.41-.64.38-.66.36-.67.34-.69.31-.71.28-.72.26-.74.23-.75.2-.77.17-.79.14-.79.11-.81.08-.82.04-.83v-.84s-.01-.86-.01-.86l-.06-.86-.09-.87-.13-.89-.16-.89-.2-.9-.24-.91-.27-.91-.31-.92-.35-.93-.38-.93-.4-.89-.43-.88-.46-.85-.48-.83-.51-.82-.53-.79-.56-.77-.59-.76-.61-.73-.63-.71-.65-.69-.68-.66-.7-.64-.72-.62-.73-.59-.75-.56-.78-.53-.79-.51-.81-.48-.82-.46-.83-.44-.84-.42-.86-.4-.86-.37-.87-.35-.89-.33-.89-.31-.9-.28-.91-.26-.92-.23-.92-.2-.94-.18-.94-.15-.94-.12-.95-.09-.95-.06-.95-.03h-.96s-.96.02-.96.02l-.96.06-.97.09-.96.12-.96.15-.96.18-.95.21-.95.24-.95.27-.94.3-.88.32-.87.36-.84.39-.81.42-.79.46-.76.48-.73.51-.71.54-.68.56-.65.59-.62.62-.59.63-.56.65-.53.68-.5.69-.47.71-.44.73-.4.74-.38.75-.35.77-.31.78-.28.79-.25.8-.22.8-.18.81-.15.83-.12.82-.09.83-.05.84-.02.83v.84s.06.85.06.85l.08.84.11.83.15.84.18.83.21.82.25.83.28.81.31.8.35.8.38.78.42.77.46.77.49.74.52.73.56.72.53.62c1.7,1.97,4.67,2.18,6.64.48,1.97-1.7,2.18-4.67.48-6.64Z"/></g></svg>