<?xml version="1.0" encoding="UTF-8"?><svg id="Ebene_2" xmlns="http://www.w3.org/2000/svg" viewBox="0 0 110.1 31.96"><defs><style>.cls-1{fill:#fef8f0;stroke-width:0px;}</style></defs><g id="Ebene_1-2"><path class="cls-1" d="m4.49,9.41l1.15.03,1.15.03,1.15.03,1.17.03,1.17.02,1.15.02h1.15s1.16.02,1.16.02h1.16s1.15,0,1.15,0h1.15s1.15,0,1.15,0h1.15s1.15-.03,1.15-.03l1.15-.02,1.15-.03,1.15-.05,1.15-.06,1.15-.06,1.14-.04,1.14-.02,1.15.02h1.15s1.14-.05,1.14-.05l1.14-.06,1.15-.06,1.15-.05,1.14-.04,1.14-.04,1.15-.03,1.15-.03,1.13-.03h1.13s1.15-.03,1.15-.03h1.15s1.13-.02,1.13-.02h1.13s1.15,0,1.15,0h1.15s1.13,0,1.13,0l1.13.02,1.15.03,1.15.03,1.13.03,1.13.05,1.15.05,1.15.05,1.13.05,1.25.07,1.25.1,1.25.12,1.25.14,1.25.16,1.25.17,1.26.2,1.26.2,1.25.22,1.26.22,1.25.24,1.26.24,1.26.25,1.26.26,1.26.26,1.26.26,1.26.26,1.26.26,1.26.26,1.26.26,1.26.24,1.26.24,1.26.23,1.26.23-1.23-.36-1.23-.36-1.23-.38-1.23-.38-1.22-.39-1.22-.39-1.22-.4-1.22-.4-1.22-.4-1.23-.4-1.23-.39-1.23-.39-1.23-.38-1.23-.38-1.24-.36-1.24-.37-1.25-.34-1.25-.34-1.26-.33-1.26-.31-1.27-.29-1.28-.28-1.28-.26-1.29-.23-1.15-.19-1.13-.18-1.13-.18-1.15-.19-1.15-.17-1.14-.16-1.14-.16-1.15-.17-1.16-.15-1.14-.15-1.14-.15-1.15-.15-1.16-.14-1.14-.14-1.14-.14-1.16-.14-1.16-.13-1.14-.14-1.14-.14-1.15-.14-1.16-.13-1.14-.14-1.14-.14-1.15-.14-1.15-.11-1.15-.09-1.15-.05-1.15-.09-1.15-.11-1.14-.13-1.14-.13-1.14-.11-1.14-.1-1.15-.09-1.15-.08-1.14-.08-1.14-.07-1.15-.07-1.15-.07-1.13-.07-1.13-.08-1.15-.08-1.15-.07-1.13-.07-1.13-.07-1.14-.08-1.14-.08L4.92,0C2.32-.11.12,1.9,0,4.49c-.12,2.6,1.89,4.8,4.49,4.91Z"/><path class="cls-1" d="m23.4,23.93l1.81.11,1.8.11,1.8.13,1.8.12,1.8.12,1.8.12,1.8.14,1.8.13,1.8.13,1.8.11,1.81.09,1.81.06,1.8.11,1.81.17,1.81.15,1.8.09,1.8.1,1.82.11,1.82.12,1.8.12,1.8.15,1.82.15,1.82.15,1.81.15,1.8.17,1.81.17,1.81.18,1.81.18,1.8.19,1.81.19,1.81.19,1.81.19,1.81.21,1.81.21,1.81.21,1.81.21,1.81.22,1.81.22,1.81.22,1.81.22,1.8.23,1.81.23,1.81.23,1.81.23,1.8.24,1.81.24,1.81.24,1.81.24-1.77-.43-1.77-.43-1.77-.43-1.77-.43-1.77-.42-1.77-.42-1.77-.42-1.77-.42-1.78-.42-1.77-.42-1.77-.42-1.78-.42-1.78-.41-1.77-.41-1.77-.42-1.78-.42-1.78-.41-1.78-.4-1.78-.4-1.78-.41-1.79-.39-1.78-.39-1.78-.4-1.79-.4-1.79-.39-1.78-.39-1.78-.39-1.8-.39-1.8-.39-1.78-.38-1.78-.39-1.8-.4-1.81-.37-1.79-.31-1.8-.29-1.8-.35-1.8-.37-1.8-.34-1.81-.29-1.81-.28-1.82-.25-1.82-.24-1.82-.23-1.82-.23-1.82-.21-1.83-.2-1.83-.19-1.81-.19c-2.59-.21-4.86,1.71-5.08,4.3-.21,2.59,1.71,4.86,4.3,5.08Z"/></g></svg>