<?xml version="1.0" encoding="UTF-8"?><svg id="Ebene_2" xmlns="http://www.w3.org/2000/svg" viewBox="0 0 449.72 345.43"><defs><style>.cls-1{fill:#2f3646;stroke-width:0px;}</style></defs><g id="Ebene_3"><path class="cls-1" d="m190.71,281.15v64.28h237.19c10.18-19.96,17.62-41.56,21.83-64.28h-180.5V5.96c-17.08-3.9-34.85-5.96-53.11-5.96-10.36,0-20.56.67-30.56,1.95l-50.31,149.05c-7.19,21.36-16.7,52.47-25.9,84.02-10-33.22-20.04-65.91-26.42-85.07l-27.67-86.26c-8.31,7.58-16.18,15.64-23.57,24.12-12.59,15.48-23.27,32.57-31.68,50.92l72.9,206.7h69.16s-.24-.83-.69-2.37l49.47-136.77-.07,74.86h-.06Z"/></g></svg>